<svg xmlns="http://www.w3.org/2000/svg" viewBox="0 0 212.36 121.71"><defs><style>.cls-1{fill:#1d1d1b;}.cls-2{fill:#0192c9;}.cls-3{fill:#00b9f1;}.cls-4{fill:#04857f;}</style></defs><title>logo</title><g id="Livello_2" data-name="Livello 2"><g id="Livello_1-2" data-name="Livello 1"><polygon class="cls-1" points="1.58 22.14 7.23 22.14 7.23 13.79 16.16 13.79 16.16 9.41 7.23 9.41 7.23 4.98 17.56 4.98 17.56 0.46 1.58 0.46 1.58 22.14"/><path class="cls-1" d="M30.73,0C23.93,0,20,5,20,11.3s3.89,11.29,10.69,11.29,10.69-5,10.69-11.29S37.53,0,30.73,0Zm0,17.73c-3.64,0-5-3.19-5-6.43s1.4-6.44,5-6.44,5,3.19,5,6.44S34.37,17.73,30.73,17.73Z"/><polygon class="cls-1" points="58.54 13.82 58.48 13.82 50.95 0.46 45.15 0.46 45.15 22.14 50.46 22.14 50.46 8.62 50.52 8.62 58.05 22.14 63.85 22.14 63.85 0.46 58.54 0.46 58.54 13.82"/><path class="cls-1" d="M77.75.46H68.43V22.14h9.32c6.59,0,10.63-3.83,10.63-10.94C88.38,4.49,84.4.46,77.75.46Zm-1,16.82H74.08v-12h2.67c3.89,0,6,1.89,6,5.86C82.73,15.52,81,17.19,76.75,17.28Z"/><path class="cls-1" d="M98.09.46,90,22.14h5.8l1.37-3.89h7.56l1.34,3.89h5.89L103.83.46Zm.37,13.6,2.46-7.59H101l2.4,7.59Z"/><polygon class="cls-1" points="131.49 4.83 131.49 0.46 113.75 0.46 113.75 5.31 124.2 5.31 113.09 17.52 113.09 22.14 131.88 22.14 131.88 17.28 120.1 17.28 131.49 4.83"/><rect class="cls-1" x="135.28" y="0.46" width="5.65" height="21.68"/><path class="cls-1" d="M155.44,0c-6.8,0-10.69,5-10.69,11.3s3.89,11.29,10.69,11.29,10.69-5,10.69-11.29S162.24,0,155.44,0Zm0,17.73c-3.65,0-5-3.19-5-6.43s1.39-6.44,5-6.44,5,3.19,5,6.44S159.08,17.73,155.44,17.73Z"/><polygon class="cls-1" points="183.25 13.82 183.18 13.82 175.65 0.46 169.85 0.46 169.85 22.14 175.17 22.14 175.17 8.62 175.23 8.62 182.76 22.14 188.56 22.14 188.56 0.46 183.25 0.46 183.25 13.82"/><polygon class="cls-1" points="198.79 17.28 198.79 13.15 209.41 13.15 209.41 8.78 198.79 8.78 198.79 4.98 210.42 4.98 210.42 0.46 193.14 0.46 193.14 22.14 210.72 22.14 210.72 17.28 198.79 17.28"/><rect class="cls-2" x="0.2" y="33.59" width="65.17" height="65.17"/><polygon class="cls-1" points="17.48 45.11 28.45 45.11 28.45 77.8 48.1 77.8 48.1 87.24 17.48 87.24 17.48 45.11"/><rect class="cls-3" x="73.49" y="33.59" width="65.17" height="65.17"/><rect class="cls-1" x="100.58" y="45.11" width="10.98" height="42.13"/><rect class="cls-4" x="146.77" y="33.59" width="65.17" height="65.17"/><path class="cls-1" d="M174.49,71.55H184L179.38,56.8h-.12Zm-.71-26.44h11.15l15.75,42.13H189.24l-2.6-7.55H172l-2.66,7.55H158Z"/><polygon class="cls-1" points="1.52 110.04 0 110.04 0 121.44 7.55 121.44 7.55 120.16 1.52 120.16 1.52 110.04"/><rect class="cls-1" x="9.33" y="110.04" width="1.52" height="11.4"/><path class="cls-1" d="M20.59,115.42v0a2.64,2.64,0,0,0,1.7-2.56,2.7,2.7,0,0,0-1.35-2.38,6.9,6.9,0,0,0-3-.41H13.79v11.4H19.3a3.26,3.26,0,0,0,3.46-3.28A2.61,2.61,0,0,0,20.59,115.42Zm-5.28-4.11h3c1.33,0,2.43.21,2.43,1.81,0,1.21-.7,1.82-2.43,1.82h-3Zm3.8,8.85h-3.8v-3.94h3.46c1.28,0,2.48.41,2.48,1.9A1.94,1.94,0,0,1,19.11,120.16Z"/><path class="cls-1" d="M32,115.94v0A2.7,2.7,0,0,0,34,113c0-1.83-1.31-3-3.47-3H25.12v11.4h1.52v-4.87h3.7c1.47,0,1.73,1,1.9,2.06s0,2.34.42,2.81h1.69c-.64-.77-.59-2-.67-3.15S33.3,116.2,32,115.94Zm-2.17-.65H26.64v-4h3.77a1.79,1.79,0,0,1,2,2C32.43,114.92,31.2,115.29,29.8,115.29Z"/><rect class="cls-1" x="36.51" y="110.04" width="1.52" height="11.4"/><rect class="cls-1" x="45.86" y="110.04" width="1.52" height="11.4"/><polygon class="cls-1" points="58.22 110.04 49.1 110.04 49.1 111.31 52.91 111.31 52.91 121.44 54.42 121.44 54.42 111.31 58.22 111.31 58.22 110.04"/><path class="cls-1" d="M61.5,110l-4.45,11.4h1.56L59.89,118h4.82L66,121.44h1.67L63.18,110Zm-1.13,6.69,1.93-5.32h0l1.9,5.32Z"/><polygon class="cls-1" points="70.66 110.04 69.14 110.04 69.14 121.44 76.69 121.44 76.69 120.16 70.66 120.16 70.66 110.04"/><rect class="cls-1" x="78.47" y="110.04" width="1.52" height="11.4"/><path class="cls-1" d="M86,110l-4.46,11.4h1.57L84.42,118h4.82l1.25,3.44h1.67L87.71,110Zm-1.13,6.69,1.93-5.32h0l1.9,5.32Z"/><polygon class="cls-1" points="101.3 119.28 101.27 119.28 95.27 110.04 93.65 110.04 93.65 121.44 95.09 121.44 95.09 112.29 95.12 112.29 101.08 121.44 102.74 121.44 102.74 110.04 101.3 110.04 101.3 119.28"/><rect class="cls-1" x="105.65" y="110.04" width="1.52" height="11.4"/><path class="cls-1" d="M118,110l-4.46,11.4h1.57l1.27-3.44h4.83l1.24,3.44h1.68L119.71,110Zm-1.14,6.69,1.93-5.32h0l1.9,5.32Z"/><path class="cls-1" d="M130.51,120.43c-2.73,0-3.88-2.17-3.88-4.77,0-2.38,1.15-4.62,3.87-4.62a3,3,0,0,1,3.19,2.43h1.52c-.34-2.43-2.32-3.71-4.7-3.71-3.51,0-5.39,2.69-5.39,6s1.74,5.94,5.27,5.94c2.89,0,4.63-1.71,4.93-4.57H133.8A3.22,3.22,0,0,1,130.51,120.43Z"/><path class="cls-1" d="M142.44,120.43c-2.74,0-3.89-2.17-3.89-4.77,0-2.38,1.15-4.62,3.87-4.62a3,3,0,0,1,3.19,2.43h1.52c-.34-2.43-2.32-3.71-4.69-3.71-3.52,0-5.4,2.69-5.4,6s1.74,5.94,5.27,5.94c2.89,0,4.63-1.71,4.93-4.57h-1.52A3.22,3.22,0,0,1,142.44,120.43Z"/><polygon class="cls-1" points="151.03 116.22 156.96 116.22 156.96 114.94 151.03 114.94 151.03 111.31 157.39 111.31 157.39 110.04 149.52 110.04 149.52 121.44 157.44 121.44 157.44 120.16 151.03 120.16 151.03 116.22"/><path class="cls-1" d="M160.88,113c0-1.49,1.26-1.95,2.55-1.95,1.58,0,2.65.69,2.83,2.33h1.44c-.08-2.5-1.87-3.61-4.2-3.61-2.1,0-4.14,1-4.14,3.34,0,4.19,7.3,2.13,7.3,5.26,0,1.64-1.52,2.07-2.89,2.07-1.73,0-3.32-.83-3.32-2.74H159c0,2.76,2.15,4,4.71,4,2.08,0,4.46-1,4.46-3.4C168.18,113.82,160.88,115.8,160.88,113Z"/><path class="cls-1" d="M171.62,113c0-1.49,1.26-1.95,2.55-1.95,1.58,0,2.65.69,2.83,2.33h1.43c-.08-2.5-1.86-3.61-4.2-3.61-2.09,0-4.13,1-4.13,3.34,0,4.19,7.3,2.13,7.3,5.26,0,1.64-1.52,2.07-2.89,2.07-1.73,0-3.33-.83-3.33-2.74h-1.43c0,2.76,2.15,4,4.71,4,2.07,0,4.45-1,4.45-3.4C178.91,113.82,171.62,115.8,171.62,113Z"/><rect class="cls-1" x="181.2" y="110.04" width="1.52" height="11.4"/><path class="cls-1" d="M192.46,115.42v0a2.64,2.64,0,0,0,1.7-2.56,2.7,2.7,0,0,0-1.34-2.38,7,7,0,0,0-3-.41h-4.14v11.4h5.51a3.27,3.27,0,0,0,3.47-3.28A2.62,2.62,0,0,0,192.46,115.42Zm-5.28-4.11h3c1.33,0,2.43.21,2.43,1.81,0,1.21-.7,1.82-2.43,1.82h-3Zm3.8,8.85h-3.8v-3.94h3.46c1.28,0,2.48.41,2.48,1.9A1.94,1.94,0,0,1,191,120.16Z"/><rect class="cls-1" x="197.05" y="110.04" width="1.52" height="11.4"/><polygon class="cls-1" points="203.03 110.04 201.51 110.04 201.51 121.44 209.07 121.44 209.07 120.16 203.03 120.16 203.03 110.04"/><rect class="cls-1" x="210.84" y="110.04" width="1.52" height="11.4"/></g></g></svg>